PathFileType	4	(X/Y/Z)	40_1_2_p0_0-397_filt_butterworth.trc
DataRate	CameraRate	NumFrames	NumMarkers	Units	OrigDataRate	OrigDataStartFrame	OrigNumFrames
59.0	59.0	6	27	m	59.0	148	397
Frame#	Time	RHip			RKnee			RAnkle			RBigToe			RSmallToe			RHeel			LHip			LKnee			LAnkle			LBigToe			LSmallToe			LHeel			Neck			Head			Nose			RShoulder			RElbow			RWrist			RThumb			RIndex			RPinky			LShoulder			LElbow			LWrist			LThumb			LIndex			LPinky			
		X1	Y1	Z1	X2	Y2	Z2	X3	Y3	Z3	X4	Y4	Z4	X5	Y5	Z5	X6	Y6	Z6	X7	Y7	Z7	X8	Y8	Z8	X9	Y9	Z9	X10	Y10	Z10	X11	Y11	Z11	X12	Y12	Z12	X13	Y13	Z13	X14	Y14	Z14	X15	Y15	Z15	X16	Y16	Z16	X17	Y17	Z17	X18	Y18	Z18	X19	Y19	Z19	X20	Y20	Z20	X21	Y21	Z21	X22	Y22	Z22	X23	Y23	Z23	X24	Y24	Z24	X25	Y25	Z25	X26	Y26	Z26	X27	Y27	Z27	
148	2.5084745762711864	0.347362978718713	0.5490785357011414	0.8556732659751599	0.3095557116120978	0.6943954724654057	1.2920209252360706	0.30217989911960597	0.8038440286837912	1.684393464161803	0.2969257218543187	0.6620795749357479	1.7072924828020306	0.3462752236088276	0.6959066757803614	1.7149710148477895	0.28321657447251913	0.9324884599814048	1.7695423989961117	0.14568915752785738	0.5607106456572296	0.8571525113856411	0.11926218906563228	0.7099177215671225	1.3038868472238565	0.1062753436127089	0.8448259417477252	1.7077457606709003	0.16301039986907856	0.6284028375338934	1.690162855900174	0.11707863451892564	0.6503611782084825	1.6925324355598181	0.11555976948680216	0.9000666049687622	1.7385296548290587	0.25678059762214034	0.47023310717630595	0.3490396361176666	0.25913945494007135	0.41980708837874947	0.10909800481664968	0.2710406215521836	0.33480018363378294	0.23256759809637734	0.39070146051278637	0.5190268186941487	0.42583659901254867	0.4487531246673645	0.4432950971334966	0.6439176078976871	0.3323166961409072	0.24341243790512324	0.5727113369469586	0.23126595566558486	0.15841178646648857	0.5113365803128156	0.21229139732966637	0.11652057244999552	0.5190394835768162	0.2131738602100106	0.14280099419449874	0.602160879656787	0.09299860787780256	0.46844366997583997	0.4093546879687786	0.08084826899034132	0.42679214892666706	0.6432278296719247	0.20457302453381795	0.2574360856988442	0.5827126415659218	0.24360330037289896	0.2000233397208306	0.5517324274734345	0.22925282020666615	0.14725009241967654	0.5428873805141321	0.22677544253943294	0.13350484847253688	0.5781385407696782
149	2.5254237288135597	0.348978653137828	0.5445486775720648	0.8545704521618448	0.3107184682782369	0.6947897364114562	1.2929278588342248	0.3021688163050592	0.8038766596785712	1.684315651637336	0.2959440421609844	0.6614544480526544	1.707125912271309	0.3455569476160245	0.6951216802856565	1.7151312912913983	0.2830856664158527	0.9314611170533067	1.7677226771815655	0.14480120570632762	0.5570718568858539	0.8565273942137162	0.12030527174801797	0.710073973718593	1.304263024903637	0.1060897833991267	0.8436418931932332	1.7056903828076366	0.16317440244619183	0.628306225630535	1.6899882650002	0.11712475938639881	0.65068371185287	1.6922921723222748	0.11520926690155002	0.899366693399338	1.7379222412400728	0.25617107758761826	0.46703756121090684	0.3502080428494209	0.2591019191559456	0.41985890801640413	0.10916258979465453	0.2694014195312746	0.33543915730080076	0.2334125350644721	0.3900132264345588	0.5189472233061005	0.4253407646160443	0.44792535614130174	0.4416118248658435	0.6425097713554564	0.33028316690050163	0.23930702842199456	0.5700391265141908	0.22313134265517864	0.15389110128006003	0.5113135794913068	0.20743373595209413	0.11831248629699354	0.5180190585199469	0.2076317162365547	0.14115644126528926	0.599830672788405	0.0926191253841149	0.46352767556608726	0.409492988245736	0.07528096288794332	0.439373859216132	0.643815308901227	0.19330231609097995	0.24866597354829362	0.584970419740124	0.23189121456850909	0.1838705954514498	0.5469502924211784	0.21909875824125652	0.13117348580318144	0.5390628759705132	0.21677061761040683	0.12548119972594685	0.5791337086168994
150	2.542372881355932	0.35000378309963465	0.5420796535949837	0.8547057204704757	0.3112747440992765	0.6948878055955486	1.2943559499338346	0.30217080809660396	0.8038206224994625	1.6842878387910396	0.2948477489284332	0.6611056819083799	1.70696230195019	0.3449576913068657	0.6943429104908322	1.7154465421182272	0.2830445504248561	0.9309650017903657	1.7668994000764995	0.14328638467176602	0.552446593578425	0.8572866930033008	0.12073718683854223	0.710088771665961	1.3053678617748747	0.10595149162355866	0.8427169073559148	1.704170839043219	0.1633142809030988	0.6282525981835894	1.689873008808355	0.11722012451525647	0.650751778317476	1.69252309919661	0.11497796997605697	0.8987598678031328	1.7371868741515222	0.2553058080134568	0.4629069910616478	0.350865825457498	0.25905536797541107	0.419884912284063	0.10920750888645103	0.2685462673102683	0.336040094204074	0.2345243860186643	0.38991878991593	0.5187835696643387	0.42451533658310403	0.4460595783088198	0.43800390998863636	0.6400763788081404	0.3274245745357502	0.23538876992642999	0.5678020482394326	0.2146413970836857	0.15095255942706032	0.5106134179607187	0.20302020332275814	0.12062947559818071	0.517066696204989	0.20558314808874306	0.14020540367582662	0.5971065479765686	0.09237850562450324	0.4598599926903703	0.4095622844949445	0.07110099374584923	0.4516729135047504	0.6445874039511968	0.18531325827157413	0.24179437300594264	0.5870510057168868	0.2199021948862252	0.17062381053754774	0.54297877465451	0.21118063373342139	0.12056723796616221	0.5358691390265784	0.21116343349145617	0.12374424848389447	0.5812712744476685
151	2.559322033898305	0.3510008712458423	0.5422764144566968	0.8566256980724316	0.31140938116811573	0.6948735716163543	1.2955673007932014	0.3021679391013386	0.803760163110512	1.6842939543766575	0.2942087556733407	0.6609004608423694	1.7069315994157936	0.34458754649774176	0.6939892575908557	1.716373093443727	0.2830468836703543	0.9309235213586111	1.7668975652457417	0.14150017394871328	0.5490911549121734	0.8597133582074833	0.12061581126856127	0.7102166367806401	1.3069117192533175	0.10590261999753295	0.8423373905816458	1.703638967994344	0.16329380489701137	0.6282922496797447	1.6898960930811102	0.11733024619739021	0.6506136940972704	1.6933282098276297	0.11506239536840322	0.8982348774251351	1.7360094787196123	0.2539575558591186	0.45984868916900185	0.3510036321604555	0.25901865737900076	0.4199071380928727	0.10920816387394412	0.26784740259947165	0.3373557601230103	0.2350181872795094	0.3900127121000709	0.5187521937036781	0.42410075494377586	0.4434124238796988	0.4326633185473533	0.6377106449422849	0.3229914128456894	0.23133006753932603	0.5664924084497153	0.20741702493332323	0.14987469115923469	0.5085653251511026	0.19969997030297917	0.12118109802313615	0.5160001935109093	0.20557046688421088	0.1387506232853824	0.5943350800752284	0.0923172860662077	0.45847108078350113	0.409547068838474	0.06837140611145565	0.45906378597702113	0.6453101380705856	0.1809589984944889	0.2408606636312503	0.5883811085390781	0.2103597032322066	0.16601790900846844	0.5414208188437517	0.20643773631699983	0.11700125558310139	0.5344121904276835	0.20917660847796005	0.12533137119893273	0.5833881859185032
152	2.5762711864406778	0.3518650266258821	0.5434849950727906	0.8597061579566256	0.31140348578811894	0.694849599325789	1.296115144509096	0.30213528194434397	0.8037255046139218	1.6842979001224627	0.29404031452520385	0.6608185106568331	1.7068471460690764	0.34455550751275493	0.6941333075982024	1.7175494052461464	0.2830544453973503	0.9311319279031947	1.7672400114918179	0.14015785061590577	0.5479520687830943	0.8624202316665793	0.12017101501902626	0.7107038323057568	1.3081650169788928	0.10591167200743498	0.8423344836405876	1.7037215449492584	0.16313145833275222	0.6284086748690744	1.690059147295642	0.1173680315502034	0.6504642446586701	1.6939838414521775	0.115328150805595	0.8977741796674128	1.7347106481731065	0.2524994400578347	0.4586765129557378	0.3510783079825247	0.2589921592352954	0.4199560674781826	0.10918003614407931	0.2665475615639135	0.3403890988351614	0.2348538178507427	0.3900085913786656	0.5189409467811466	0.42521439107819725	0.4409093381088874	0.4266441717869135	0.636405551752652	0.31664500913600474	0.2271015956058905	0.5658006901560002	0.20269239280986795	0.14842368616507354	0.5052887286852582	0.19830399413950278	0.11708798560117192	0.5150516325545296	0.2054702778247323	0.13617015409829927	0.591368366575965	0.09235032915733175	0.4585547915632097	0.4094842674600987	0.06621823324759744	0.46252663062093585	0.6457039748502033	0.17824620298878135	0.24242384180926174	0.5886853445111124	0.20337583989378236	0.16741215282062247	0.5419193653670912	0.20332135120681083	0.11716740037811851	0.5342861753299197	0.20859347169699444	0.12692203129577584	0.5837363877981413
153	2.593220338983051	0.35235993241022295	0.5442494346688306	0.8626710004155596	0.3113960271336764	0.6947980203969025	1.2961739132815915	0.3021049052519539	0.8037172727196898	1.6842438691091968	0.29425055033765707	0.6609609597168142	1.7064056125497882	0.34513475985887043	0.6945985242716691	1.7183127607320585	0.28303846856827	0.9315110617263118	1.7676409947408922	0.13969343299583964	0.5481718160758318	0.8640536551789434	0.11964754682797807	0.7114851798284019	1.3087646502176276	0.10591802221306205	0.8424740211616384	1.7038500672898915	0.16301202702111803	0.6285398305864993	1.6902600516900201	0.11728578108499896	0.6503997627153777	1.6938437414728371	0.1155086355075661	0.8975570726477593	1.7340568192960106	0.2516222979325361	0.45855112293578937	0.3512453296582356	0.25897437278405055	0.42003191665907214	0.10914094169728275	0.2648140569498338	0.34453606494772365	0.2344260774100448	0.38966560317965426	0.5193411684350991	0.4276180934000921	0.4391355827022529	0.4199058295623262	0.6361444558050737	0.3085518245211718	0.22357411103255748	0.5654279041835938	0.20053292365455974	0.14574432318149314	0.5020376142292609	0.19846872495523535	0.1093415617055274	0.514196006796594	0.20483439437458578	0.13275160587877874	0.5875928688128966	0.09242207510211198	0.4589222092180874	0.4094038838515214	0.06412393944750978	0.46494323248403857	0.6457130314747317	0.1755308798113272	0.24062253258159608	0.5878061282889165	0.1976738419794069	0.16984352903257946	0.5435454343234861	0.20037765172005106	0.1180371511296883	0.5342092912715185	0.20684029291341235	0.1270143742008678	0.5805242700299287
